<?xml version="1.0" encoding="UTF-8" standalone="no"?>
<!-- Created with Inkscape (http://www.inkscape.org/) -->

<svg
   version="1.1"
   id="svg2"
   width="312"
   height="104"
   viewBox="0 0 312 104"
   sodipodi:docname="ccmplogo.svg"
   inkscape:version="1.2.1 (9c6d41e410, 2022-07-14)"
   xmlns:inkscape="http://www.inkscape.org/namespaces/inkscape"
   xmlns:sodipodi="http://sodipodi.sourceforge.net/DTD/sodipodi-0.dtd"
   xmlns="http://www.w3.org/2000/svg"
   xmlns:svg="http://www.w3.org/2000/svg">
  <defs
     id="defs6" />
  <sodipodi:namedview
     id="namedview4"
     pagecolor="#ffffff"
     bordercolor="#000000"
     borderopacity="0.25"
     inkscape:showpageshadow="2"
     inkscape:pageopacity="0.0"
     inkscape:pagecheckerboard="0"
     inkscape:deskcolor="#d1d1d1"
     showgrid="false"
     inkscape:zoom="3.8782051"
     inkscape:cx="140.4"
     inkscape:cy="31.715703"
     inkscape:window-width="1920"
     inkscape:window-height="1017"
     inkscape:window-x="1072"
     inkscape:window-y="443"
     inkscape:window-maximized="1"
     inkscape:current-layer="g8"
     inkscape:lockguides="false"
     showguides="true" />
  <g
     inkscape:groupmode="layer"
     inkscape:label="Image"
     id="g8">
    <path
       style="opacity:0.57;fill:#3b5eab;fill-opacity:1;stroke-width:0.257851"
       d="m 109.06761,55.244628 c 1.9088,-9.610649 12.15919,-20.337562 26.3875,-27.614222 9.39545,-4.805029 18.919,-7.420535 21.37251,-5.869649 1.01919,0.64424 1.67748,1.900172 2.52017,4.808109 0.79552,2.745179 0.7955,2.74131 0.0159,3.667872 -0.77953,0.926416 -2.28426,1.392013 -10.19671,3.155086 -22.35281,4.980718 -32.86205,10.60051 -38.93684,20.821399 -0.6111,1.028182 -1.16011,1.869422 -1.22001,1.869422 -0.0599,0 -0.034,-0.377108 0.0575,-0.838017 z"
       id="path10692" />
    <path
       style="opacity:0.57;fill:#3b5eab;fill-opacity:1;stroke-width:0.257851"
       d="m 109.2,55.145397 c 0,-0.6969 1.20037,-3.808492 2.27446,-5.89581 3.03001,-5.888391 9.19175,-12.193815 16.93546,-17.330369 8.64588,-5.734986 20.30527,-10.365949 26.14145,-10.383059 1.83407,-0.0054 1.9336,0.0264 2.73107,0.871965 0.88207,0.935263 2.4564,5.12467 2.4564,6.536643 0,0.927792 -0.80712,1.721225 -2.27929,2.240639 -0.60736,0.214287 -4.37513,1.158406 -8.37283,2.098042 -3.99769,0.939636 -7.30745,1.813252 -7.35502,1.941369 -0.0476,0.128118 -0.18437,0.172444 -0.30402,0.0985 -0.30148,-0.186327 -2.57479,0.445505 -2.57479,0.715624 0,0.120774 -0.0988,0.158505 -0.21963,0.08385 -0.31225,-0.192976 -3.13243,0.644331 -3.13243,0.930011 0,0.130426 -0.1049,0.172307 -0.23311,0.09307 -0.3245,-0.200549 -4.98049,1.452207 -8.39346,2.979454 -7.35315,3.290416 -12.59639,7.524087 -16.07347,12.978554 C 109.4825,55.171877 109.2,55.532157 109.2,55.145399 Z"
       id="path10901" />
    <path
       style="opacity:0.57;fill:#3b5eab;fill-opacity:1;stroke-width:0.257851"
       d="m 109.45785,54.599484 c 0,-0.175032 0.42016,-1.368001 0.93369,-2.651043 2.74568,-6.860045 9.17763,-13.940878 18.01579,-19.833333 8.74707,-5.831717 20.02882,-10.328599 26.01075,-10.367831 2.01379,-0.01321 2.10989,0.01365 2.73707,0.764901 0.68814,0.824286 1.90031,3.698547 2.28859,5.426632 0.28678,1.276375 -0.04,2.02013 -1.18031,2.686084 -0.4563,0.266492 -4.57521,1.408105 -9.15314,2.536918 -16.32516,4.025412 -22.5756,6.317308 -29.33839,10.757723 -2.81735,1.849859 -7.00211,6.010292 -8.86027,8.808749 -0.79958,1.204191 -1.45378,2.046232 -1.45378,1.8712 z"
       id="path10903" />
    <path
       style="opacity:0.57;fill:#3b5eab;fill-opacity:1;stroke-width:0.257851"
       d="m 122.81732,78.675163 c -3.02406,-1.320319 -4.30792,-2.155293 -6.16128,-4.007049 -2.68386,-2.681537 -4.34475,-6.698496 -4.35735,-10.538489 -0.0202,-6.141614 3.99835,-12.961004 10.06547,-17.081108 2.06676,-1.40351 5.40239,-2.962096 9.90631,-4.628765 8.78523,-3.25096 22.0436,-6.707355 25.7287,-6.707355 1.8603,0 2.11128,0.308951 1.92448,2.368991 -0.26824,2.958168 -2.84303,7.15015 -4.63747,7.550187 -0.31649,0.07056 -2.78006,0.605475 -5.47461,1.188708 -19.14651,4.144256 -30.25818,10.161079 -32.26643,17.471853 -0.38973,1.418759 -0.40778,1.874256 -0.1369,3.453927 0.53053,3.093785 1.73422,5.013059 5.42016,8.642367 3.59689,3.54162 3.59534,3.861315 -0.0111,2.286733 z"
       id="path10905" />
    <path
       style="opacity:0.57;fill:#3b5eab;fill-opacity:1;stroke-width:0.257851"
       d="m 122.60826,78.42546 c -2.70184,-1.187908 -4.01428,-2.066443 -5.80165,-3.883549 -2.77919,-2.825439 -4.26997,-6.474797 -4.28377,-10.486506 -0.0174,-5.065039 2.18876,-9.71156 6.72377,-14.16119 2.58758,-2.538865 4.95538,-4.018269 9.42116,-5.886359 9.72009,-4.066033 27.48056,-8.806764 30.21019,-8.063886 0.71653,0.195007 0.73161,0.236787 0.71532,1.982163 -0.0136,1.462209 -0.16835,2.099372 -0.85996,3.541822 -0.46382,0.967374 -1.32658,2.2512 -1.91724,2.852946 l -1.07393,1.094082 -5.48496,1.219861 c -6.71827,1.49415 -11.75661,2.902713 -15.88124,4.4399 -12.44917,4.639611 -18.3871,10.723996 -16.93234,17.349974 0.53461,2.434982 1.70605,4.261971 4.83224,7.536416 1.60101,1.676938 2.91093,3.111785 2.91093,3.18855 0,0.295835 -0.71556,0.09486 -2.57852,-0.724224 z"
       id="path10907" />
    <path
       style="opacity:0.57;fill:#3b5eab;fill-opacity:1;stroke-width:0.257851"
       d="m 120.91537,26.45801 c -3.30719,-1.502122 -4.94124,-4.968918 -3.93115,-8.340303 0.43893,-1.465011 2.24701,-3.363941 3.86627,-4.060526 1.09165,-0.469616 1.67622,-0.558222 3.03939,-0.460688 2.66651,0.190788 4.75987,1.599641 5.84763,3.935514 1.15155,2.472854 0.63191,5.00436 -1.45579,7.092062 -2.14149,2.141487 -5.07905,2.872828 -7.36635,1.833941 z"
       id="path10909" />
    <path
       style="opacity:0.57;fill:#3b5eab;fill-opacity:1;stroke-width:0.257851"
       d="m 120.91219,26.321859 c -2.33072,-1.014879 -3.96981,-3.568916 -3.97413,-6.192515 -0.003,-1.891103 0.66032,-3.362811 2.10383,-4.666933 1.40161,-1.266271 2.46202,-1.667859 4.39611,-1.664851 3.77543,0.0059 6.64795,2.752501 6.64795,6.356599 0,2.416336 -1.63973,4.710547 -4.2282,5.91582 -1.50072,0.698785 -3.66596,0.809062 -4.94556,0.25188 z"
       id="path10911" />
    <path
       style="opacity:0.57;fill:#672e6c;fill-opacity:1;stroke-width:0.257851"
       d="m 162.66282,67.463915 c -2.38788,-1.90501 -4.94672,-4.556838 -5.14456,-5.331528 -0.15195,-0.594974 0.10758,-1.618672 1.17422,-4.63156 4.57927,-12.934837 6.40444,-22.122652 5.71076,-28.747659 -0.54159,-5.172521 -1.91214,-8.224942 -4.69096,-10.447514 -3.16163,-2.52875 -9.36556,-2.668564 -15.28465,-0.344461 -0.69207,0.27174 -1.33025,0.421593 -1.41818,0.333006 -0.29809,-0.300329 3.44128,-3.591805 5.04535,-4.441027 8.50029,-4.5002017 19.87745,-0.360766 23.62174,8.594471 1.25695,3.006261 1.60118,5.249769 1.58031,10.299464 -0.0218,5.281451 -0.64724,9.6237 -2.4241,16.830828 -0.98383,3.990523 -3.83375,13.510956 -4.88521,16.3195 -0.51964,1.388006 -1.35003,2.562069 -1.81212,2.562069 -0.12355,0 -0.78622,-0.448014 -1.4726,-0.995589 z"
       id="path12362" />
    <path
       style="opacity:0.57;fill:#672e6c;fill-opacity:1;stroke-width:0.257851"
       d="m 161.67273,66.441857 c -2.5961,-2.214684 -3.9967,-3.906568 -3.9967,-4.827916 0,-0.384598 0.79941,-3.091848 1.77646,-6.016111 4.00853,-11.997328 5.39426,-18.868834 5.10214,-25.300309 -0.58313,-12.838534 -7.56292,-16.880103 -21.04203,-12.18416 -0.74303,0.258862 1.6336,-2.035695 3.41811,-3.300074 2.74718,-1.946465 4.49323,-2.436428 8.68251,-2.436428 3.14879,0 3.68389,0.06965 5.60695,0.729827 4.30973,1.479503 7.96632,4.644292 9.8819,8.552818 1.71946,3.508335 1.9182,4.655212 1.89907,10.958678 -0.0223,7.345209 -0.70987,11.486801 -3.61228,21.758666 -2.62215,9.279991 -4.33374,13.824831 -5.20643,13.824779 -0.24579,-1.5e-5 -1.37516,-0.791912 -2.5097,-1.75977 z"
       id="path12364" />
    <path
       style="opacity:0.57;fill:#672e6c;fill-opacity:1;stroke-width:0.257851"
       d="m 162.04521,66.5721 c -2.00911,-1.658445 -4.10033,-3.942213 -4.14102,-4.522301 -0.0614,-0.875239 0.1287,-1.581814 2.12133,-7.885426 3.75271,-11.87159 4.76416,-17.106165 4.53692,-23.480076 -0.0846,-2.371855 -0.30707,-4.515997 -0.57531,-5.543801 -1.65677,-6.348038 -5.63556,-9.318506 -11.98382,-8.946812 -2.07983,0.121775 -6.02635,0.930632 -7.86447,1.611856 -0.96823,0.358836 1.48957,-1.95235 3.45546,-3.249328 2.58747,-1.707062 4.58334,-2.149894 9.00402,-1.997755 2.83605,0.0976 3.50872,0.209269 5.07441,0.842369 4.62684,1.870904 8.02361,5.162194 9.91516,9.607279 1.14968,2.701693 1.38778,4.825274 1.22209,10.899333 -0.2018,7.397592 -0.85713,11.07699 -3.79326,21.297793 -2.49178,8.673989 -4.05081,12.738571 -4.88607,12.738571 -0.23304,0 -1.17148,-0.617265 -2.08544,-1.371702 z"
       id="path12366" />
    <path
       style="opacity:0.57;fill:#672e6c;fill-opacity:1;stroke-width:0.257851"
       d="m 172.17436,72.986212 c -1.03138,-0.333982 -2.17741,-0.805236 -2.54674,-1.04723 -0.63946,-0.418987 -0.66488,-0.521762 -0.53256,-2.153122 0.0814,-1.003995 0.68276,-3.420902 1.45267,-5.838752 4.53052,-14.227739 5.88834,-19.967328 6.48174,-27.398706 0.46372,-5.807353 -0.34428,-11.444932 -2.20363,-15.375289 -0.34313,-0.72532 -1.32535,-2.412762 -2.18271,-3.74987 -1.59369,-2.485478 -1.76051,-2.854649 -1.28992,-2.854649 0.46956,0 4.50609,4.192516 5.58579,5.801654 2.61826,3.902105 4.73311,9.269411 5.86678,14.889377 1.82462,9.045141 1.47965,20.887588 -0.88068,30.233463 -1.90557,7.545228 -4.18367,9.295873 -9.75074,7.493124 z"
       id="path12368" />
    <path
       style="opacity:0.57;fill:#672e6c;fill-opacity:1;stroke-width:0.257851"
       d="m 174.04959,73.358487 c -1.27983,-0.263692 -4.00356,-1.260606 -4.48071,-1.639983 -0.63032,-0.501162 -0.16045,-3.565309 1.25101,-8.158173 4.79633,-15.607156 6.03654,-21.154854 6.3737,-28.510681 0.33117,-7.22501 -0.9131,-12.079976 -4.60623,-17.972817 -0.70427,-1.12376 -1.22911,-2.094586 -1.16631,-2.157391 0.43855,-0.438547 5.06128,4.794086 6.56481,7.430936 2.18742,3.836234 4.01712,9.179489 5.01179,14.635877 0.65493,3.592702 0.92391,14.081036 0.47398,18.482144 -0.98708,9.655405 -3.08726,16.171125 -5.63207,17.473282 -0.96426,0.493406 -2.56421,0.669361 -3.78997,0.416806 z"
       id="path12370" />
    <path
       style="opacity:0.57;fill:#672e6c;fill-opacity:1;stroke-width:0.257851"
       d="m 172.37355,72.756685 c -2.47956,-0.921449 -2.57364,-0.969159 -2.81339,-1.42669 -0.26041,-0.49697 0.0719,-3.178641 0.64337,-5.191152 0.22147,-0.78 1.14564,-3.912892 2.0537,-6.961983 2.13247,-7.16038 3.53487,-12.700811 4.27503,-16.889257 0.48938,-2.769299 0.59403,-4.293458 0.60195,-8.766942 0.008,-4.806596 -0.0563,-5.673828 -0.57737,-7.720052 -0.6083,-2.388962 -2.20979,-6.041483 -3.78835,-8.640076 -0.50085,-0.824487 -0.91064,-1.595958 -0.91064,-1.71438 0,-0.405692 2.87652,2.602489 4.36065,4.560242 3.44059,4.538566 6.30286,12.633026 6.97554,19.726728 0.41012,4.324869 0.33619,14.50627 -0.13126,18.07681 -1.05518,8.059855 -2.80412,13.202237 -5.04997,14.8483 -1.10704,0.811396 -3.60349,0.854978 -5.63926,0.09845 z"
       id="path12372" />
    <path
       style="opacity:0.57;fill:#672e6c;fill-opacity:1;stroke-width:0.257851"
       d="m 193.63669,51.562289 c -2.76592,-1.023508 -4.12436,-3.384993 -3.92613,-6.825099 0.23636,-4.101663 2.35079,-6.061308 6.51423,-6.037362 3.05743,0.01758 5.24306,1.425113 6.51958,4.198549 0.72598,1.577301 0.69616,3.427722 -0.0801,4.968478 -0.61368,1.218088 -2.12899,2.748779 -3.34528,3.379228 -1.33686,0.692945 -4.22926,0.853899 -5.68232,0.316206 z"
       id="path12374" />
    <path
       style="opacity:0.57;fill:#672e6c;fill-opacity:1;stroke-width:0.257851"
       d="m 193.06031,51.153448 c -2.16181,-1.070073 -3.15287,-2.944314 -3.15287,-5.962515 0,-3.248322 1.30744,-5.301812 3.84539,-6.039612 4.52665,-1.315933 8.98603,1.437652 9.25851,5.71696 0.0839,1.317007 -0.009,1.882759 -0.46022,2.815661 -0.70101,1.448103 -2.82985,3.399302 -4.09092,3.749563 -1.64779,0.457671 -4.17422,0.326642 -5.39989,-0.280057 z"
       id="path12376" />
    <path
       style="opacity:0.57;fill:#672e6c;fill-opacity:1;stroke-width:0.257851"
       d="m 194.30582,51.428736 c -1.49466,-0.307033 -2.83,-1.39011 -3.59448,-2.915441 -0.48356,-0.964813 -0.61639,-1.647952 -0.62419,-3.20997 -0.0209,-4.198127 2.00084,-6.284365 6.09022,-6.284365 5.71323,0 8.79634,6.05219 5.14943,10.108428 -0.6469,0.719514 -1.59658,1.522673 -2.11039,1.784799 -1.16058,0.592087 -3.39742,0.827382 -4.91059,0.516549 z"
       id="path12378" />
    <path
       style="opacity:0.57;fill:#672e6c;fill-opacity:1;stroke-width:0.257851"
       d="m 193.32558,51.033216 c -1.2342,-0.631999 -2.5753,-2.245432 -2.91714,-3.509511 -0.16517,-0.610765 -0.248,-1.933806 -0.18408,-2.940092 0.21448,-3.376452 1.79599,-5.085787 5.01694,-5.422443 5.09251,-0.532272 8.99879,4.056323 7.06947,8.304296 -0.53277,1.173069 -2.07007,2.782591 -3.24961,3.40229 -1.15458,0.606581 -4.67577,0.708161 -5.73558,0.16546 z"
       id="path12380" />
    <path
       style="opacity:0.57;fill:#672e6c;fill-opacity:1;stroke-width:0.257851"
       d="m 172.14572,72.582907 c -0.76349,-0.274625 -1.67822,-0.689366 -2.03273,-0.921648 -0.61147,-0.40065 -0.63639,-0.510236 -0.48544,-2.134359 0.0878,-0.944597 1.09027,-4.890579 2.23638,-8.802933 3.28769,-11.222893 4.66557,-17.022351 5.14605,-21.659504 0.32637,-3.14986 0.3248,-8.911684 -0.003,-11.179525 -0.43606,-3.016366 -1.77849,-6.5209 -3.94537,-10.299712 -0.55306,-0.964489 -0.94881,-1.810377 -0.87943,-1.879752 0.21172,-0.211721 3.80888,4.015862 5.05821,5.944689 2.3037,3.556666 4.24488,8.839424 5.43179,14.782189 0.89394,4.475845 0.95821,16.498164 0.12091,22.615582 -1.00957,7.375992 -2.99911,12.632607 -5.1725,13.666407 -1.13382,0.539311 -3.78715,0.475612 -5.47482,-0.131434 z"
       id="path12382" />
    <path
       style="opacity:0.57;fill:#672e6c;fill-opacity:1;stroke-width:0.257851"
       d="m 163.23726,67.441959 c -1.30652,-0.861265 -5.04652,-4.698292 -5.20848,-5.343611 -0.0972,-0.387386 0.35061,-2.269001 1.20355,-5.056822 4.23686,-13.848024 5.10275,-17.65386 5.32204,-23.391939 0.1841,-4.81742 -0.16545,-7.839778 -1.2211,-10.558162 -2.45928,-6.332825 -7.90591,-8.293737 -16.80101,-6.048749 -0.8109,0.204658 -1.65214,0.440325 -1.86942,0.523706 -1.74741,0.670542 2.40046,-2.832922 4.56801,-3.858337 2.47035,-1.16866 7.85607,-1.477679 11.14424,-0.639427 4.25936,1.085837 8.75407,4.898185 10.73656,9.106588 1.40225,2.976682 1.63305,4.409601 1.59903,9.927273 -0.0506,8.201485 -0.73212,12.470065 -3.5613,22.304133 -2.41362,8.389626 -4.30412,13.541447 -4.96695,13.535491 -0.10397,-0.001 -0.5293,-0.225999 -0.94517,-0.500144 z"
       id="path12384" />
    <path
       style="opacity:0.57;fill:#3b5eab;fill-opacity:1;stroke-width:0.257851"
       d="m 109.7157,53.903807 c 0,-0.379374 2.19111,-5.071537 2.8828,-6.173379 5.20101,-8.285121 15.03581,-16.239977 26.52934,-21.458193 5.90486,-2.680883 12.26987,-4.483805 15.82959,-4.483805 1.05637,0 1.45414,0.122611 1.88211,0.580165 0.75231,0.804306 2.05023,3.631119 2.41442,5.258503 0.26417,1.180409 0.24589,1.442908 -0.14166,2.034389 -0.24474,0.37351 -0.85659,0.851093 -1.35968,1.061297 -0.50309,0.210204 -4.73347,1.359746 -9.40086,2.554537 -13.19497,3.377748 -18.40821,5.073029 -23.56569,7.663274 -5.29315,2.658375 -9.98287,6.497801 -13.20143,10.807859 -1.58415,2.121371 -1.86894,2.449804 -1.86894,2.155353 z"
       id="path13291" />
    <path
       style="opacity:0.57;fill:#3b5eab;fill-opacity:1;stroke-width:0.257851"
       d="m 110.11819,52.93894 c 0.46653,-1.469924 2.88605,-5.842554 4.28926,-7.751692 2.21328,-3.011278 7.27516,-7.956372 10.92927,-10.677121 7.83424,-5.833145 17.52024,-10.450058 25.37733,-12.096308 3.31292,-0.694138 4.73446,-0.769508 5.64454,-0.299274 0.74572,0.385307 2.17878,3.121401 2.71685,5.187179 0.34134,1.310511 0.34408,1.593165 0.0215,2.216944 -0.47368,0.915979 -1.19121,1.187905 -7.48043,2.834874 -16.36956,4.286723 -20.91359,5.714354 -25.87546,8.129484 -5.88261,2.863286 -10.70905,6.660138 -14.10929,11.099452 -0.80953,1.056909 -1.52162,1.921654 -1.58243,1.921654 -0.0608,0 -0.0298,-0.254336 0.0688,-0.565192 z"
       id="path13293" />
    <path
       style="opacity:0.57;fill:#3b5eab;fill-opacity:1;stroke-width:0.257851"
       d="m 122.58628,78.292857 c -4.71414,-2.011675 -8.06839,-5.653765 -9.41243,-10.22013 -0.30001,-1.019306 -0.45662,-2.426777 -0.45905,-4.125619 -0.007,-4.808008 1.77125,-8.837003 5.80149,-13.145342 3.76195,-4.021541 8.30619,-6.378847 19.04735,-9.880735 7.69364,-2.508321 17.68416,-4.948828 20.24132,-4.944594 1.62339,0.0027 1.76746,0.200192 1.62262,2.224484 -0.15081,2.107841 -1.11132,4.26299 -2.65403,5.955035 l -1.0314,1.131245 -6.0595,1.401264 c -10.37536,2.399307 -16.08916,4.263025 -21.49005,7.009586 -4.97125,2.528071 -8.41367,5.509636 -10.03512,8.691663 -0.63694,1.249981 -0.81535,1.964572 -0.90384,3.620203 -0.1859,3.47844 0.96897,5.746589 5.30966,10.428072 1.32255,1.426379 2.25081,2.590278 2.06281,2.586441 -0.18799,-0.0038 -1.10592,-0.333046 -2.03983,-0.731573 z"
       id="path13295" />
    <path
       style="opacity:0.57;fill:#3b5eab;fill-opacity:1;stroke-width:0.257851"
       d="m 121.60112,77.710967 c -4.17895,-2.039317 -7.75969,-6.4612 -8.53266,-10.537068 -0.65038,-3.429424 -0.0546,-7.675928 1.50696,-10.741486 2.23818,-4.393808 6.44611,-8.453762 11.26161,-10.865567 5.40918,-2.709153 16.8013,-6.416029 25.85873,-8.414162 7.37608,-1.627218 7.98682,-1.548757 7.64616,0.982298 -0.33995,2.525838 -1.04351,4.092703 -2.69729,6.007052 l -0.90248,1.044671 -5.15703,1.209594 c -13.64837,3.201263 -21.09284,5.924595 -26.59725,9.72979 -2.4271,1.677853 -4.98184,4.390527 -5.89752,6.262107 -0.85976,1.757287 -1.1316,4.534092 -0.64318,6.570054 0.38408,1.601027 2.18182,4.400312 4.39918,6.850015 2.74946,3.03757 2.69379,2.965534 2.28951,2.962855 -0.202,-0.0013 -1.34263,-0.478407 -2.53474,-1.060153 z"
       id="path13297" />
    <path
       style="opacity:0.57;fill:#3b5eab;fill-opacity:1;stroke-width:0.257851"
       d="m 120.67438,26.042124 c -2.16325,-1.166934 -3.52741,-3.525171 -3.5152,-6.076779 0.008,-1.683359 0.45497,-2.768383 1.67465,-4.065626 1.27699,-1.358215 2.51305,-1.870683 4.52737,-1.877049 2.02809,-0.0064 3.1396,0.388488 4.53031,1.609536 3.01394,2.646241 2.5544,7.157034 -0.97953,9.614917 -1.32766,0.923406 -1.6213,1.017735 -3.45746,1.110695 -1.50953,0.07642 -2.1982,-0.0018 -2.78014,-0.315694 z"
       id="path13299" />
    <path
       style="opacity:0.57;fill:#3b5eab;fill-opacity:1;stroke-width:0.257851"
       d="m 119.40998,24.812207 c -2.78025,-2.780254 -2.92861,-6.40114 -0.36578,-8.92774 0.47115,-0.464484 1.15757,-1.002184 1.52539,-1.19489 1.07738,-0.564446 3.14854,-0.731157 4.63963,-0.37345 1.80822,0.433785 3.9135,2.419959 4.36449,4.117568 0.65444,2.463437 -0.37775,5.018803 -2.70205,6.68936 -1.21231,0.871331 -1.40596,0.924626 -3.66633,1.009007 l -2.38641,0.08909 z"
       id="path13301" />
    <path
       style="opacity:0.57;fill:#3b5eab;fill-opacity:1;stroke-width:0.257851"
       d="m 119.70013,24.979423 c -3.15846,-3.235442 -3.18828,-6.956426 -0.0762,-9.506555 1.27448,-1.044346 3.25759,-1.501543 5.00945,-1.154906 2.93992,0.581713 4.90837,2.73829 4.96891,5.443776 0.0364,1.628628 -0.43054,2.870809 -1.56495,4.162831 -1.37152,1.562078 -2.227,1.943342 -4.79555,2.137242 l -2.31449,0.17472 z"
       id="path13303" />
    <path
       style="opacity:0.57;fill:#aa3339;fill-opacity:1;stroke-width:0.257851"
       d="m 167.99008,84.717788 c -2.78594,-0.592039 -4.76835,-1.405315 -7.78341,-3.193126 -9.15402,-5.427969 -22.8523,-17.940464 -25.61996,-23.402172 -0.88979,-1.755927 -0.82318,-2.142069 0.53019,-3.073211 2.66515,-1.833668 4.50802,-2.020088 7.11134,-0.719358 1.37444,0.686729 2.82512,1.980475 8.61474,7.682783 10.32043,10.164799 15.09757,13.747401 20.59079,15.441995 2.38978,0.737217 5.54931,0.742908 7.49881,0.01351 2.00903,-0.751673 4.32818,-2.547932 5.72157,-4.431535 1.46959,-1.986612 2.08053,-3.36809 2.59434,-5.866423 0.21875,-1.063636 0.5727,-2.274862 0.78656,-2.691613 l 0.38883,-0.757729 0.41946,0.757729 c 0.69722,1.259449 0.58911,6.91425 -0.17962,9.395746 -1.72079,5.55483 -6.32698,9.747357 -12.03562,10.954748 -2.39804,0.507191 -5.94237,0.461508 -8.63802,-0.11134 z"
       id="path13719" />
    <path
       style="opacity:0.57;fill:#aa3339;fill-opacity:1;stroke-width:0.257851"
       d="m 167.99008,84.593932 c -0.78,-0.173366 -1.88231,-0.467649 -2.44958,-0.653967 -7.48263,-2.457614 -24.85789,-16.741403 -30.08447,-24.731726 -1.45767,-2.228465 -1.58054,-3.111545 -0.53537,-3.847918 2.28306,-1.608526 4.45446,-2.073094 6.27552,-1.342641 1.66195,0.666633 3.05473,1.823355 8.27915,6.875948 9.73962,9.419282 13.91737,12.916217 17.87013,14.957967 3.06072,1.58098 5.23504,2.171675 7.99338,2.171556 3.59758,-1.55e-4 5.81541,-1.026112 8.51013,-3.936737 1.80054,-1.944799 2.76258,-3.839573 3.57608,-7.043221 0.35139,-1.383831 0.75515,-2.632315 0.89724,-2.774408 0.52884,-0.528837 0.87492,1.897356 0.74491,5.222124 -0.18917,4.837523 -1.38084,7.676378 -4.55446,10.849857 -3.2875,3.287361 -6.81902,4.639007 -12.00508,4.594796 -1.70467,-0.01454 -3.73758,-0.168266 -4.51758,-0.34163 z"
       id="path13721" />
    <path
       style="opacity:0.57;fill:#aa3339;fill-opacity:1;stroke-width:0.257851"
       d="m 166.84959,84.182314 c -3.27858,-0.872886 -7.67748,-3.392681 -13.17025,-7.544239 -10.0603,-7.603801 -19.20992,-17.174833 -19.20992,-20.094701 0,-0.589137 0.23454,-0.878679 1.21589,-1.501035 2.24608,-1.424417 3.8827,-1.609152 5.87502,-0.663145 1.60351,0.761388 2.60466,1.627676 10.17017,8.800213 9.71866,9.213837 13.44453,12.076397 18.0487,13.866697 3.565,1.386225 7.87039,1.350023 10.57004,-0.08888 3.1927,-1.701688 5.66322,-4.881622 6.81851,-8.776436 0.39623,-1.335798 0.84799,-2.765348 1.00392,-3.176777 0.25159,-0.663839 0.30515,-0.692867 0.47581,-0.257851 0.29603,0.754602 0.26232,6.268735 -0.0488,7.984994 -0.4868,2.685235 -1.85925,5.121783 -4.2063,7.467552 -2.25982,2.258584 -4.20429,3.404322 -6.98042,4.113073 -2.23432,0.570424 -8.2086,0.497194 -10.56235,-0.129467 z"
       id="path13723" />
    <path
       style="opacity:0.57;fill:#aa3339;fill-opacity:1;stroke-width:0.257851"
       d="m 169.00708,84.444118 c -3.41038,-0.389361 -6.4449,-1.782299 -11.84675,-5.438038 -6.87535,-4.652941 -15.8557,-12.686576 -20.14832,-18.024262 -1.10205,-1.370353 -2.54259,-3.876736 -2.54259,-4.423836 0,-1.053376 2.93166,-2.592903 4.9084,-2.577592 2.32724,0.01803 2.85231,0.408996 11.95618,8.902572 7.77535,7.254122 9.56735,8.822893 12.40154,10.856679 3.57316,2.56407 6.63382,3.889327 9.79835,4.242664 6.73839,0.752378 11.42064,-2.756101 13.93125,-10.438884 l 1.00669,-3.080611 0.17831,1.804959 c 0.23092,2.337552 -0.13046,6.900219 -0.66308,8.371716 -0.65045,1.797044 -1.58238,3.226582 -3.31541,5.085713 -1.92734,2.067577 -4.10284,3.526964 -6.24305,4.188009 -1.89993,0.586829 -6.60795,0.852129 -9.42152,0.530911 z"
       id="path13725" />
    <path
       style="opacity:0.57;fill:#aa3339;fill-opacity:1;stroke-width:0.257851"
       d="m 161.8145,90.354618 c -7.5616,-0.728162 -15.80116,-3.866673 -23.51798,-8.958176 -6.17967,-4.0773 -13.92226,-10.973734 -15.12223,-13.469587 -1.13085,-2.352079 -0.56903,-4.135924 2.14481,-6.809978 2.0471,-2.017087 2.61898,-2.188518 4.21009,-1.262028 0.66076,0.384759 4.45031,3.901547 8.42122,7.815083 8.12703,8.009601 11.17584,10.785571 14.98219,13.641401 6.998,5.250468 12.16343,7.310759 19.24214,7.674951 1.88208,0.09683 3.6454,0.256366 3.91849,0.354522 0.84012,0.301964 -1.51819,0.749511 -5.43923,1.03223 -4.00571,0.288824 -5.6853,0.285323 -8.8395,-0.01841 z"
       id="path13727" />
    <path
       style="opacity:0.57;fill:#aa3339;fill-opacity:1;stroke-width:0.257851"
       d="m 161.28595,90.197447 c -2.10294,-0.225749 -6.43022,-1.215524 -8.98461,-2.055038 -3.75608,-1.234461 -10.38215,-4.514327 -13.96415,-6.912175 -5.97375,-3.998924 -13.73385,-10.870148 -14.92078,-13.211697 -0.6662,-1.314258 -0.70552,-2.892745 -0.10365,-4.161386 0.56769,-1.196611 3.45345,-4.098159 4.2829,-4.306339 1.31117,-0.329082 1.98151,0.219795 11.51508,9.428571 8.225,7.944776 10.12188,9.658315 13.53719,12.228762 7.89148,5.939314 13.03288,7.757967 23.05067,8.153655 1.05511,0.04167 -0.8379,0.461776 -3.27599,0.727012 -2.45702,0.267293 -9.0588,0.331694 -11.13666,0.108635 z"
       id="path13729" />
    <path
       style="opacity:0.57;fill:#aa3339;fill-opacity:1;stroke-width:0.257851"
       d="m 158.33985,89.58487 c -5.58329,-1.202616 -8.20985,-2.167671 -14.17206,-5.207107 -5.89158,-3.003428 -11.50272,-7.080286 -17.17749,-12.48057 -3.11094,-2.960458 -3.86633,-4.135893 -3.86633,-6.016201 0,-1.197892 0.14205,-1.673148 0.7945,-2.658167 1.15161,-1.73862 3.22929,-3.530263 4.09387,-3.530263 1.04268,0 2.23376,0.97259 8.27289,6.755289 12.35322,11.828696 14.87338,14.033409 19.52559,17.081577 5.91189,3.873523 10.86938,5.429397 18.75447,5.885959 0.84211,0.04876 0.66272,0.118807 -0.97748,0.381671 -3.25265,0.521282 -12.43604,0.393486 -15.24796,-0.212188 z"
       id="path13731" />
    <path
       style="opacity:0.57;fill:#aa3339;fill-opacity:1;stroke-width:0.257851"
       d="m 161.28595,89.854249 c -4.80753,-0.40127 -9.11396,-1.716551 -15.0843,-4.607071 -4.50987,-2.18344 -8.02078,-4.298714 -11.6033,-6.990808 -4.36384,-3.279218 -9.33149,-7.87623 -10.62739,-9.834462 -0.99459,-1.50292 -1.00171,-3.568153 -0.0174,-5.055495 0.85254,-1.288269 2.41228,-2.827731 3.36604,-3.322269 1.36292,-0.706693 1.61522,-0.505662 13.38471,10.664945 3.59083,3.408112 7.22498,6.804324 8.07589,7.547137 5.18581,4.527028 10.69332,7.926193 15.27611,9.428226 2.29472,0.752108 7.22741,1.653306 9.18091,1.677348 1.15218,0.01418 1.24271,0.05056 0.68347,0.27465 -0.83333,0.33392 -9.46156,0.482654 -12.63471,0.217799 z"
       id="path13733" />
    <path
       style="opacity:0.57;fill:#aa3339;fill-opacity:1;stroke-width:0.257851"
       d="m 135.24131,101.22355 c -4.59232,-1.396924 -5.80966,-6.795315 -2.39002,-10.598771 2.26012,-2.5138 5.20195,-3.243807 7.78904,-1.932829 2.37966,1.205861 3.62952,3.469653 3.62492,6.565554 -0.006,3.991902 -2.43003,6.239806 -6.66957,6.184796 -0.93944,-0.0122 -1.99891,-0.11063 -2.35437,-0.21875 z"
       id="path13735" />
    <path
       style="opacity:0.57;fill:#aa3339;fill-opacity:1;stroke-width:0.257851"
       d="m 134.27646,100.66397 c -2.06234,-1.020844 -3.16271,-2.875534 -3.15344,-5.315192 0.01,-2.611606 1.67804,-5.152686 4.23218,-6.446967 3.10001,-1.570893 6.7255,-0.206501 8.13063,3.059824 0.47815,1.11147 0.55784,1.699045 0.4838,3.566796 -0.11263,2.841334 -0.82754,4.096305 -2.87714,5.050589 -1.82675,0.85053 -5.18483,0.89238 -6.81603,0.085 z"
       id="path13737" />
    <path
       style="opacity:0.57;fill:#aa3339;fill-opacity:1;stroke-width:0.257851"
       d="m 135.51574,100.93999 c -2.41813,-0.50477 -4.16213,-2.750513 -4.17469,-5.375728 -0.0211,-4.413708 4.26158,-8.082862 8.16032,-6.991282 1.49725,0.419203 3.2976,2.0108 3.85755,3.410268 0.49192,1.22943 0.56649,4.269961 0.14327,5.841697 -0.30233,1.122736 -1.30917,2.166331 -2.61721,2.712725 -1.20721,0.50428 -3.91043,0.70683 -5.36924,0.40232 z"
       id="path13739" />
    <path
       style="opacity:0.57;fill:#aa3339;fill-opacity:1;stroke-width:0.257851"
       d="m 134.72727,100.67703 c -0.85309,-0.36043 -2.26321,-1.728952 -2.77542,-2.693559 -0.61328,-1.154929 -0.55886,-3.848442 0.10727,-5.309 1.11978,-2.455251 3.49547,-4.08665 5.96603,-4.096907 2.55164,-0.01059 4.90897,1.878505 5.44126,4.360462 0.76468,3.565598 -0.0985,6.213896 -2.42178,7.430414 -0.94065,0.49254 -5.36986,0.7089 -6.31736,0.30859 z"
       id="path13741" />
  </g>
</svg>
